<mxfile host="app.diagrams.net" modified="2020-07-03T06:40:07.478Z" agent="5.0 (Macintosh; Intel Mac OS X 10_11_6) AppleWebKit/537.36 (KHTML, like Gecko) Chrome/83.0.4103.116 Safari/537.36" etag="bXpeX3z-ftlujpoSdEDr" version="13.3.7" type="github">
  <diagram id="HSDht7DIzM8e7bIC4mqB" name="第 1 页">
    <mxGraphModel dx="1678" dy="859" grid="1" gridSize="10" guides="1" tooltips="1" connect="1" arrows="1" fold="1" page="1" pageScale="1" pageWidth="827" pageHeight="1169" math="0" shadow="0">
      <root>
        <mxCell id="0" />
        <mxCell id="1" parent="0" />
        <mxCell id="mqr4CoRcmg9S_tCV8cLc-18" value="" style="rounded=0;whiteSpace=wrap;html=1;" vertex="1" parent="1">
          <mxGeometry x="90" y="260" width="180" height="300" as="geometry" />
        </mxCell>
        <mxCell id="mqr4CoRcmg9S_tCV8cLc-5" style="edgeStyle=orthogonalEdgeStyle;rounded=0;orthogonalLoop=1;jettySize=auto;html=1;exitX=0.5;exitY=1;exitDx=0;exitDy=0;entryX=0.5;entryY=0;entryDx=0;entryDy=0;" edge="1" parent="1" source="mqr4CoRcmg9S_tCV8cLc-2" target="mqr4CoRcmg9S_tCV8cLc-3">
          <mxGeometry relative="1" as="geometry" />
        </mxCell>
        <mxCell id="mqr4CoRcmg9S_tCV8cLc-2" value="mpcpredictgateway" style="rounded=1;whiteSpace=wrap;html=1;" vertex="1" parent="1">
          <mxGeometry x="120" y="280" width="120" height="60" as="geometry" />
        </mxCell>
        <mxCell id="mqr4CoRcmg9S_tCV8cLc-7" style="edgeStyle=orthogonalEdgeStyle;rounded=0;orthogonalLoop=1;jettySize=auto;html=1;exitX=0.5;exitY=1;exitDx=0;exitDy=0;entryX=0.5;entryY=0;entryDx=0;entryDy=0;" edge="1" parent="1" source="mqr4CoRcmg9S_tCV8cLc-3" target="mqr4CoRcmg9S_tCV8cLc-4">
          <mxGeometry relative="1" as="geometry" />
        </mxCell>
        <mxCell id="mqr4CoRcmg9S_tCV8cLc-3" value="mpcpredictpc" style="rounded=1;whiteSpace=wrap;html=1;" vertex="1" parent="1">
          <mxGeometry x="120" y="380" width="120" height="60" as="geometry" />
        </mxCell>
        <mxCell id="mqr4CoRcmg9S_tCV8cLc-4" value="mpcpredictdx" style="rounded=1;whiteSpace=wrap;html=1;" vertex="1" parent="1">
          <mxGeometry x="120" y="480" width="120" height="60" as="geometry" />
        </mxCell>
        <mxCell id="mqr4CoRcmg9S_tCV8cLc-8" value="k8s-svc: http://mpcpredictpc.dns" style="text;html=1;strokeColor=none;fillColor=none;align=center;verticalAlign=middle;whiteSpace=wrap;rounded=0;" vertex="1" parent="1">
          <mxGeometry x="120" y="347" width="130" height="20" as="geometry" />
        </mxCell>
        <mxCell id="mqr4CoRcmg9S_tCV8cLc-10" value="k8s-svc: http://mpcpredictdx.dns" style="text;html=1;strokeColor=none;fillColor=none;align=center;verticalAlign=middle;whiteSpace=wrap;rounded=0;" vertex="1" parent="1">
          <mxGeometry x="115" y="448" width="130" height="20" as="geometry" />
        </mxCell>
        <mxCell id="mqr4CoRcmg9S_tCV8cLc-19" value="em14" style="text;html=1;strokeColor=none;fillColor=none;align=center;verticalAlign=middle;whiteSpace=wrap;rounded=0;" vertex="1" parent="1">
          <mxGeometry x="160" y="540" width="40" height="20" as="geometry" />
        </mxCell>
        <mxCell id="mqr4CoRcmg9S_tCV8cLc-20" value="" style="rounded=0;whiteSpace=wrap;html=1;" vertex="1" parent="1">
          <mxGeometry x="350" y="260" width="180" height="300" as="geometry" />
        </mxCell>
        <mxCell id="mqr4CoRcmg9S_tCV8cLc-21" style="edgeStyle=orthogonalEdgeStyle;rounded=0;orthogonalLoop=1;jettySize=auto;html=1;exitX=0.5;exitY=1;exitDx=0;exitDy=0;entryX=0.5;entryY=0;entryDx=0;entryDy=0;" edge="1" source="mqr4CoRcmg9S_tCV8cLc-22" target="mqr4CoRcmg9S_tCV8cLc-24" parent="1">
          <mxGeometry relative="1" as="geometry" />
        </mxCell>
        <mxCell id="mqr4CoRcmg9S_tCV8cLc-22" value="mpcpredictgateway" style="rounded=1;whiteSpace=wrap;html=1;" vertex="1" parent="1">
          <mxGeometry x="380" y="280" width="120" height="60" as="geometry" />
        </mxCell>
        <mxCell id="mqr4CoRcmg9S_tCV8cLc-23" style="edgeStyle=orthogonalEdgeStyle;rounded=0;orthogonalLoop=1;jettySize=auto;html=1;exitX=0.5;exitY=1;exitDx=0;exitDy=0;entryX=0.5;entryY=0;entryDx=0;entryDy=0;" edge="1" source="mqr4CoRcmg9S_tCV8cLc-24" target="mqr4CoRcmg9S_tCV8cLc-25" parent="1">
          <mxGeometry relative="1" as="geometry" />
        </mxCell>
        <mxCell id="mqr4CoRcmg9S_tCV8cLc-24" value="mpcpredictpc" style="rounded=1;whiteSpace=wrap;html=1;" vertex="1" parent="1">
          <mxGeometry x="380" y="380" width="120" height="60" as="geometry" />
        </mxCell>
        <mxCell id="mqr4CoRcmg9S_tCV8cLc-25" value="mpcpredictdx" style="rounded=1;whiteSpace=wrap;html=1;" vertex="1" parent="1">
          <mxGeometry x="380" y="480" width="120" height="60" as="geometry" />
        </mxCell>
        <mxCell id="mqr4CoRcmg9S_tCV8cLc-26" value="k8s-svc: http://mpcpredictpc.dns" style="text;html=1;strokeColor=none;fillColor=none;align=center;verticalAlign=middle;whiteSpace=wrap;rounded=0;" vertex="1" parent="1">
          <mxGeometry x="380" y="347" width="130" height="20" as="geometry" />
        </mxCell>
        <mxCell id="mqr4CoRcmg9S_tCV8cLc-27" value="k8s-svc: http://mpcpredictdx.dns" style="text;html=1;strokeColor=none;fillColor=none;align=center;verticalAlign=middle;whiteSpace=wrap;rounded=0;" vertex="1" parent="1">
          <mxGeometry x="375" y="448" width="130" height="20" as="geometry" />
        </mxCell>
        <mxCell id="mqr4CoRcmg9S_tCV8cLc-28" value="et15" style="text;html=1;strokeColor=none;fillColor=none;align=center;verticalAlign=middle;whiteSpace=wrap;rounded=0;" vertex="1" parent="1">
          <mxGeometry x="420" y="540" width="40" height="20" as="geometry" />
        </mxCell>
        <mxCell id="mqr4CoRcmg9S_tCV8cLc-33" style="rounded=0;orthogonalLoop=1;jettySize=auto;html=1;exitX=0.5;exitY=1;exitDx=0;exitDy=0;entryX=0.5;entryY=0;entryDx=0;entryDy=0;" edge="1" parent="1" source="mqr4CoRcmg9S_tCV8cLc-30" target="mqr4CoRcmg9S_tCV8cLc-2">
          <mxGeometry relative="1" as="geometry" />
        </mxCell>
        <mxCell id="mqr4CoRcmg9S_tCV8cLc-34" style="rounded=0;orthogonalLoop=1;jettySize=auto;html=1;exitX=0.5;exitY=1;exitDx=0;exitDy=0;entryX=0.5;entryY=0;entryDx=0;entryDy=0;" edge="1" parent="1" source="mqr4CoRcmg9S_tCV8cLc-30" target="mqr4CoRcmg9S_tCV8cLc-22">
          <mxGeometry relative="1" as="geometry" />
        </mxCell>
        <mxCell id="mqr4CoRcmg9S_tCV8cLc-30" value="External IP" style="rounded=1;whiteSpace=wrap;html=1;" vertex="1" parent="1">
          <mxGeometry x="250" y="170" width="120" height="60" as="geometry" />
        </mxCell>
        <mxCell id="mqr4CoRcmg9S_tCV8cLc-35" value="&lt;span style=&quot;color: rgb(0, 0, 0); font-family: helvetica; font-size: 12px; font-style: normal; font-weight: 400; letter-spacing: normal; text-indent: 0px; text-transform: none; word-spacing: 0px; background-color: rgb(248, 249, 250); display: inline; float: none;&quot;&gt;Speial VIP1&lt;/span&gt;" style="text;whiteSpace=wrap;html=1;align=center;" vertex="1" parent="1">
          <mxGeometry x="180" y="230" width="80" height="30" as="geometry" />
        </mxCell>
        <mxCell id="mqr4CoRcmg9S_tCV8cLc-36" value="&lt;span style=&quot;color: rgb(0 , 0 , 0) ; font-family: &amp;#34;helvetica&amp;#34; ; font-size: 12px ; font-style: normal ; font-weight: 400 ; letter-spacing: normal ; text-indent: 0px ; text-transform: none ; word-spacing: 0px ; background-color: rgb(248 , 249 , 250) ; display: inline ; float: none&quot;&gt;Speial VIP2&lt;/span&gt;" style="text;whiteSpace=wrap;html=1;align=center;" vertex="1" parent="1">
          <mxGeometry x="367" y="230" width="80" height="30" as="geometry" />
        </mxCell>
        <mxCell id="mqr4CoRcmg9S_tCV8cLc-39" style="edgeStyle=none;rounded=0;orthogonalLoop=1;jettySize=auto;html=1;exitX=0.5;exitY=1;exitDx=0;exitDy=0;" edge="1" parent="1" source="mqr4CoRcmg9S_tCV8cLc-38" target="mqr4CoRcmg9S_tCV8cLc-30">
          <mxGeometry relative="1" as="geometry" />
        </mxCell>
        <mxCell id="mqr4CoRcmg9S_tCV8cLc-38" value="XX Bank" style="rounded=1;whiteSpace=wrap;html=1;" vertex="1" parent="1">
          <mxGeometry x="250" y="40" width="120" height="60" as="geometry" />
        </mxCell>
        <mxCell id="mqr4CoRcmg9S_tCV8cLc-40" value="" style="rounded=0;whiteSpace=wrap;html=1;" vertex="1" parent="1">
          <mxGeometry x="870" y="260" width="180" height="300" as="geometry" />
        </mxCell>
        <mxCell id="mqr4CoRcmg9S_tCV8cLc-41" style="edgeStyle=orthogonalEdgeStyle;rounded=0;orthogonalLoop=1;jettySize=auto;html=1;exitX=0.5;exitY=1;exitDx=0;exitDy=0;entryX=0.5;entryY=0;entryDx=0;entryDy=0;" edge="1" source="mqr4CoRcmg9S_tCV8cLc-42" target="mqr4CoRcmg9S_tCV8cLc-44" parent="1">
          <mxGeometry relative="1" as="geometry" />
        </mxCell>
        <mxCell id="mqr4CoRcmg9S_tCV8cLc-42" value="mpcpredictgateway" style="rounded=1;whiteSpace=wrap;html=1;" vertex="1" parent="1">
          <mxGeometry x="900" y="280" width="120" height="60" as="geometry" />
        </mxCell>
        <mxCell id="mqr4CoRcmg9S_tCV8cLc-43" style="edgeStyle=orthogonalEdgeStyle;rounded=0;orthogonalLoop=1;jettySize=auto;html=1;exitX=0.5;exitY=1;exitDx=0;exitDy=0;entryX=0.5;entryY=0;entryDx=0;entryDy=0;" edge="1" source="mqr4CoRcmg9S_tCV8cLc-44" target="mqr4CoRcmg9S_tCV8cLc-45" parent="1">
          <mxGeometry relative="1" as="geometry" />
        </mxCell>
        <mxCell id="mqr4CoRcmg9S_tCV8cLc-44" value="mpcpredictpc" style="rounded=1;whiteSpace=wrap;html=1;" vertex="1" parent="1">
          <mxGeometry x="900" y="380" width="120" height="60" as="geometry" />
        </mxCell>
        <mxCell id="mqr4CoRcmg9S_tCV8cLc-45" value="mpcpredictdx" style="rounded=1;whiteSpace=wrap;html=1;" vertex="1" parent="1">
          <mxGeometry x="900" y="480" width="120" height="60" as="geometry" />
        </mxCell>
        <mxCell id="mqr4CoRcmg9S_tCV8cLc-46" value="k8s-svc: http://mpcpredictpc.dns" style="text;html=1;strokeColor=none;fillColor=none;align=center;verticalAlign=middle;whiteSpace=wrap;rounded=0;" vertex="1" parent="1">
          <mxGeometry x="900" y="347" width="130" height="20" as="geometry" />
        </mxCell>
        <mxCell id="mqr4CoRcmg9S_tCV8cLc-47" value="k8s-svc: http://mpcpredictdx.dns" style="text;html=1;strokeColor=none;fillColor=none;align=center;verticalAlign=middle;whiteSpace=wrap;rounded=0;" vertex="1" parent="1">
          <mxGeometry x="895" y="448" width="130" height="20" as="geometry" />
        </mxCell>
        <mxCell id="mqr4CoRcmg9S_tCV8cLc-48" value="em14" style="text;html=1;strokeColor=none;fillColor=none;align=center;verticalAlign=middle;whiteSpace=wrap;rounded=0;" vertex="1" parent="1">
          <mxGeometry x="940" y="540" width="40" height="20" as="geometry" />
        </mxCell>
        <mxCell id="mqr4CoRcmg9S_tCV8cLc-49" value="" style="rounded=0;whiteSpace=wrap;html=1;" vertex="1" parent="1">
          <mxGeometry x="1130" y="260" width="180" height="300" as="geometry" />
        </mxCell>
        <mxCell id="mqr4CoRcmg9S_tCV8cLc-50" style="edgeStyle=orthogonalEdgeStyle;rounded=0;orthogonalLoop=1;jettySize=auto;html=1;exitX=0.5;exitY=1;exitDx=0;exitDy=0;entryX=0.5;entryY=0;entryDx=0;entryDy=0;" edge="1" source="mqr4CoRcmg9S_tCV8cLc-51" target="mqr4CoRcmg9S_tCV8cLc-53" parent="1">
          <mxGeometry relative="1" as="geometry" />
        </mxCell>
        <mxCell id="mqr4CoRcmg9S_tCV8cLc-51" value="mpcpredictgateway" style="rounded=1;whiteSpace=wrap;html=1;" vertex="1" parent="1">
          <mxGeometry x="1160" y="280" width="120" height="60" as="geometry" />
        </mxCell>
        <mxCell id="mqr4CoRcmg9S_tCV8cLc-52" style="edgeStyle=orthogonalEdgeStyle;rounded=0;orthogonalLoop=1;jettySize=auto;html=1;exitX=0.5;exitY=1;exitDx=0;exitDy=0;entryX=0.5;entryY=0;entryDx=0;entryDy=0;" edge="1" source="mqr4CoRcmg9S_tCV8cLc-53" target="mqr4CoRcmg9S_tCV8cLc-54" parent="1">
          <mxGeometry relative="1" as="geometry" />
        </mxCell>
        <mxCell id="mqr4CoRcmg9S_tCV8cLc-53" value="mpcpredictpc" style="rounded=1;whiteSpace=wrap;html=1;" vertex="1" parent="1">
          <mxGeometry x="1160" y="380" width="120" height="60" as="geometry" />
        </mxCell>
        <mxCell id="mqr4CoRcmg9S_tCV8cLc-54" value="mpcpredictdx" style="rounded=1;whiteSpace=wrap;html=1;" vertex="1" parent="1">
          <mxGeometry x="1160" y="480" width="120" height="60" as="geometry" />
        </mxCell>
        <mxCell id="mqr4CoRcmg9S_tCV8cLc-55" value="k8s-svc: http://mpcpredictpc.dns" style="text;html=1;strokeColor=none;fillColor=none;align=center;verticalAlign=middle;whiteSpace=wrap;rounded=0;" vertex="1" parent="1">
          <mxGeometry x="1160" y="347" width="130" height="20" as="geometry" />
        </mxCell>
        <mxCell id="mqr4CoRcmg9S_tCV8cLc-56" value="k8s-svc: http://mpcpredictdx.dns" style="text;html=1;strokeColor=none;fillColor=none;align=center;verticalAlign=middle;whiteSpace=wrap;rounded=0;" vertex="1" parent="1">
          <mxGeometry x="1155" y="448" width="130" height="20" as="geometry" />
        </mxCell>
        <mxCell id="mqr4CoRcmg9S_tCV8cLc-57" value="et15" style="text;html=1;strokeColor=none;fillColor=none;align=center;verticalAlign=middle;whiteSpace=wrap;rounded=0;" vertex="1" parent="1">
          <mxGeometry x="1200" y="540" width="40" height="20" as="geometry" />
        </mxCell>
        <mxCell id="mqr4CoRcmg9S_tCV8cLc-58" style="rounded=0;orthogonalLoop=1;jettySize=auto;html=1;exitX=0.5;exitY=1;exitDx=0;exitDy=0;entryX=0.5;entryY=0;entryDx=0;entryDy=0;" edge="1" source="mqr4CoRcmg9S_tCV8cLc-60" target="mqr4CoRcmg9S_tCV8cLc-42" parent="1">
          <mxGeometry relative="1" as="geometry" />
        </mxCell>
        <mxCell id="mqr4CoRcmg9S_tCV8cLc-59" style="rounded=0;orthogonalLoop=1;jettySize=auto;html=1;exitX=0.5;exitY=1;exitDx=0;exitDy=0;entryX=0.5;entryY=0;entryDx=0;entryDy=0;" edge="1" source="mqr4CoRcmg9S_tCV8cLc-60" target="mqr4CoRcmg9S_tCV8cLc-51" parent="1">
          <mxGeometry relative="1" as="geometry" />
        </mxCell>
        <mxCell id="mqr4CoRcmg9S_tCV8cLc-60" value="Spanner" style="rounded=1;whiteSpace=wrap;html=1;" vertex="1" parent="1">
          <mxGeometry x="1030" y="170" width="120" height="60" as="geometry" />
        </mxCell>
        <mxCell id="mqr4CoRcmg9S_tCV8cLc-63" style="edgeStyle=none;rounded=0;orthogonalLoop=1;jettySize=auto;html=1;exitX=0.5;exitY=1;exitDx=0;exitDy=0;" edge="1" source="mqr4CoRcmg9S_tCV8cLc-64" target="mqr4CoRcmg9S_tCV8cLc-60" parent="1">
          <mxGeometry relative="1" as="geometry" />
        </mxCell>
        <mxCell id="mqr4CoRcmg9S_tCV8cLc-64" value="XX Bank" style="rounded=1;whiteSpace=wrap;html=1;" vertex="1" parent="1">
          <mxGeometry x="1030" y="40" width="120" height="60" as="geometry" />
        </mxCell>
        <mxCell id="mqr4CoRcmg9S_tCV8cLc-65" value="&lt;font face=&quot;helvetica&quot;&gt;Host: https://mpcpredictgateway.alipay.com&lt;/font&gt;" style="text;whiteSpace=wrap;html=1;align=center;" vertex="1" parent="1">
          <mxGeometry x="983.5" y="113" width="213" height="30" as="geometry" />
        </mxCell>
        <mxCell id="mqr4CoRcmg9S_tCV8cLc-66" value="k8s-svc: http://mpcpredictgateway.dns" style="text;html=1;strokeColor=none;fillColor=none;align=center;verticalAlign=middle;whiteSpace=wrap;rounded=0;" vertex="1" parent="1">
          <mxGeometry x="893" y="230" width="130" height="20" as="geometry" />
        </mxCell>
        <mxCell id="mqr4CoRcmg9S_tCV8cLc-67" value="k8s-svc: http://mpcpredictgateway.dns" style="text;html=1;strokeColor=none;fillColor=none;align=center;verticalAlign=middle;whiteSpace=wrap;rounded=0;" vertex="1" parent="1">
          <mxGeometry x="1160" y="230" width="130" height="20" as="geometry" />
        </mxCell>
        <mxCell id="mqr4CoRcmg9S_tCV8cLc-68" value="&lt;font face=&quot;helvetica&quot;&gt;IP:&lt;br&gt;xxx.xxx.xxx.xxx&lt;br&gt;&lt;/font&gt;" style="text;whiteSpace=wrap;html=1;align=center;" vertex="1" parent="1">
          <mxGeometry x="205" y="113" width="213" height="30" as="geometry" />
        </mxCell>
        <mxCell id="mqr4CoRcmg9S_tCV8cLc-69" value="" style="rounded=0;whiteSpace=wrap;html=1;" vertex="1" parent="1">
          <mxGeometry x="90" y="860" width="180" height="300" as="geometry" />
        </mxCell>
        <mxCell id="mqr4CoRcmg9S_tCV8cLc-70" style="edgeStyle=orthogonalEdgeStyle;rounded=0;orthogonalLoop=1;jettySize=auto;html=1;exitX=0.5;exitY=1;exitDx=0;exitDy=0;entryX=0.5;entryY=0;entryDx=0;entryDy=0;" edge="1" source="mqr4CoRcmg9S_tCV8cLc-71" target="mqr4CoRcmg9S_tCV8cLc-73" parent="1">
          <mxGeometry relative="1" as="geometry" />
        </mxCell>
        <mxCell id="mqr4CoRcmg9S_tCV8cLc-71" value="mpcpredictgateway" style="rounded=1;whiteSpace=wrap;html=1;" vertex="1" parent="1">
          <mxGeometry x="120" y="880" width="120" height="60" as="geometry" />
        </mxCell>
        <mxCell id="mqr4CoRcmg9S_tCV8cLc-72" style="edgeStyle=orthogonalEdgeStyle;rounded=0;orthogonalLoop=1;jettySize=auto;html=1;exitX=0.5;exitY=1;exitDx=0;exitDy=0;entryX=0.5;entryY=0;entryDx=0;entryDy=0;" edge="1" source="mqr4CoRcmg9S_tCV8cLc-73" target="mqr4CoRcmg9S_tCV8cLc-74" parent="1">
          <mxGeometry relative="1" as="geometry" />
        </mxCell>
        <mxCell id="mqr4CoRcmg9S_tCV8cLc-73" value="mpcpredictpc" style="rounded=1;whiteSpace=wrap;html=1;" vertex="1" parent="1">
          <mxGeometry x="120" y="980" width="120" height="60" as="geometry" />
        </mxCell>
        <mxCell id="mqr4CoRcmg9S_tCV8cLc-74" value="mpcpredictdx" style="rounded=1;whiteSpace=wrap;html=1;" vertex="1" parent="1">
          <mxGeometry x="120" y="1080" width="120" height="60" as="geometry" />
        </mxCell>
        <mxCell id="mqr4CoRcmg9S_tCV8cLc-75" value="k8s-svc: http://mpcpredictpc.dns" style="text;html=1;strokeColor=none;fillColor=none;align=center;verticalAlign=middle;whiteSpace=wrap;rounded=0;" vertex="1" parent="1">
          <mxGeometry x="120" y="947" width="130" height="20" as="geometry" />
        </mxCell>
        <mxCell id="mqr4CoRcmg9S_tCV8cLc-76" value="k8s-svc: http://mpcpredictdx.dns" style="text;html=1;strokeColor=none;fillColor=none;align=center;verticalAlign=middle;whiteSpace=wrap;rounded=0;" vertex="1" parent="1">
          <mxGeometry x="115" y="1048" width="130" height="20" as="geometry" />
        </mxCell>
        <mxCell id="mqr4CoRcmg9S_tCV8cLc-77" value="em14" style="text;html=1;strokeColor=none;fillColor=none;align=center;verticalAlign=middle;whiteSpace=wrap;rounded=0;" vertex="1" parent="1">
          <mxGeometry x="160" y="1140" width="40" height="20" as="geometry" />
        </mxCell>
        <mxCell id="mqr4CoRcmg9S_tCV8cLc-78" value="" style="rounded=0;whiteSpace=wrap;html=1;" vertex="1" parent="1">
          <mxGeometry x="350" y="860" width="180" height="300" as="geometry" />
        </mxCell>
        <mxCell id="mqr4CoRcmg9S_tCV8cLc-79" style="edgeStyle=orthogonalEdgeStyle;rounded=0;orthogonalLoop=1;jettySize=auto;html=1;exitX=0.5;exitY=1;exitDx=0;exitDy=0;entryX=0.5;entryY=0;entryDx=0;entryDy=0;" edge="1" source="mqr4CoRcmg9S_tCV8cLc-80" target="mqr4CoRcmg9S_tCV8cLc-82" parent="1">
          <mxGeometry relative="1" as="geometry" />
        </mxCell>
        <mxCell id="mqr4CoRcmg9S_tCV8cLc-80" value="mpcpredictgateway" style="rounded=1;whiteSpace=wrap;html=1;" vertex="1" parent="1">
          <mxGeometry x="380" y="880" width="120" height="60" as="geometry" />
        </mxCell>
        <mxCell id="mqr4CoRcmg9S_tCV8cLc-81" style="edgeStyle=orthogonalEdgeStyle;rounded=0;orthogonalLoop=1;jettySize=auto;html=1;exitX=0.5;exitY=1;exitDx=0;exitDy=0;entryX=0.5;entryY=0;entryDx=0;entryDy=0;" edge="1" source="mqr4CoRcmg9S_tCV8cLc-82" target="mqr4CoRcmg9S_tCV8cLc-83" parent="1">
          <mxGeometry relative="1" as="geometry" />
        </mxCell>
        <mxCell id="mqr4CoRcmg9S_tCV8cLc-82" value="mpcpredictpc" style="rounded=1;whiteSpace=wrap;html=1;" vertex="1" parent="1">
          <mxGeometry x="380" y="980" width="120" height="60" as="geometry" />
        </mxCell>
        <mxCell id="mqr4CoRcmg9S_tCV8cLc-83" value="mpcpredictdx" style="rounded=1;whiteSpace=wrap;html=1;" vertex="1" parent="1">
          <mxGeometry x="380" y="1080" width="120" height="60" as="geometry" />
        </mxCell>
        <mxCell id="mqr4CoRcmg9S_tCV8cLc-84" value="k8s-svc: http://mpcpredictpc.dns" style="text;html=1;strokeColor=none;fillColor=none;align=center;verticalAlign=middle;whiteSpace=wrap;rounded=0;" vertex="1" parent="1">
          <mxGeometry x="380" y="947" width="130" height="20" as="geometry" />
        </mxCell>
        <mxCell id="mqr4CoRcmg9S_tCV8cLc-85" value="k8s-svc: http://mpcpredictdx.dns" style="text;html=1;strokeColor=none;fillColor=none;align=center;verticalAlign=middle;whiteSpace=wrap;rounded=0;" vertex="1" parent="1">
          <mxGeometry x="375" y="1048" width="130" height="20" as="geometry" />
        </mxCell>
        <mxCell id="mqr4CoRcmg9S_tCV8cLc-86" value="et15" style="text;html=1;strokeColor=none;fillColor=none;align=center;verticalAlign=middle;whiteSpace=wrap;rounded=0;" vertex="1" parent="1">
          <mxGeometry x="420" y="1140" width="40" height="20" as="geometry" />
        </mxCell>
        <mxCell id="mqr4CoRcmg9S_tCV8cLc-87" style="rounded=0;orthogonalLoop=1;jettySize=auto;html=1;exitX=0.5;exitY=1;exitDx=0;exitDy=0;entryX=0.5;entryY=0;entryDx=0;entryDy=0;" edge="1" source="mqr4CoRcmg9S_tCV8cLc-89" target="mqr4CoRcmg9S_tCV8cLc-71" parent="1">
          <mxGeometry relative="1" as="geometry" />
        </mxCell>
        <mxCell id="mqr4CoRcmg9S_tCV8cLc-89" value="External IP1" style="rounded=1;whiteSpace=wrap;html=1;" vertex="1" parent="1">
          <mxGeometry x="120" y="770" width="120" height="60" as="geometry" />
        </mxCell>
        <mxCell id="mqr4CoRcmg9S_tCV8cLc-90" value="&lt;span style=&quot;color: rgb(0, 0, 0); font-family: helvetica; font-size: 12px; font-style: normal; font-weight: 400; letter-spacing: normal; text-indent: 0px; text-transform: none; word-spacing: 0px; background-color: rgb(248, 249, 250); display: inline; float: none;&quot;&gt;Speial VIP1&lt;/span&gt;" style="text;whiteSpace=wrap;html=1;align=center;" vertex="1" parent="1">
          <mxGeometry x="140" y="830" width="80" height="30" as="geometry" />
        </mxCell>
        <mxCell id="mqr4CoRcmg9S_tCV8cLc-91" value="&lt;span style=&quot;color: rgb(0 , 0 , 0) ; font-family: &amp;#34;helvetica&amp;#34; ; font-size: 12px ; font-style: normal ; font-weight: 400 ; letter-spacing: normal ; text-indent: 0px ; text-transform: none ; word-spacing: 0px ; background-color: rgb(248 , 249 , 250) ; display: inline ; float: none&quot;&gt;Speial VIP2&lt;/span&gt;" style="text;whiteSpace=wrap;html=1;align=center;" vertex="1" parent="1">
          <mxGeometry x="400" y="830" width="80" height="30" as="geometry" />
        </mxCell>
        <mxCell id="mqr4CoRcmg9S_tCV8cLc-92" style="edgeStyle=none;rounded=0;orthogonalLoop=1;jettySize=auto;html=1;exitX=0.5;exitY=1;exitDx=0;exitDy=0;" edge="1" source="mqr4CoRcmg9S_tCV8cLc-93" target="mqr4CoRcmg9S_tCV8cLc-89" parent="1">
          <mxGeometry relative="1" as="geometry" />
        </mxCell>
        <mxCell id="mqr4CoRcmg9S_tCV8cLc-93" value="XX Bank" style="rounded=1;whiteSpace=wrap;html=1;" vertex="1" parent="1">
          <mxGeometry x="120" y="640" width="120" height="60" as="geometry" />
        </mxCell>
        <mxCell id="mqr4CoRcmg9S_tCV8cLc-94" value="&lt;font face=&quot;helvetica&quot;&gt;IP:&lt;br&gt;xxx.xxx.xxx.xxx&lt;br&gt;&lt;/font&gt;" style="text;whiteSpace=wrap;html=1;align=center;" vertex="1" parent="1">
          <mxGeometry x="74.5" y="713" width="213" height="30" as="geometry" />
        </mxCell>
        <mxCell id="mqr4CoRcmg9S_tCV8cLc-97" style="edgeStyle=none;rounded=0;orthogonalLoop=1;jettySize=auto;html=1;exitX=0.5;exitY=1;exitDx=0;exitDy=0;" edge="1" parent="1" source="mqr4CoRcmg9S_tCV8cLc-96" target="mqr4CoRcmg9S_tCV8cLc-80">
          <mxGeometry relative="1" as="geometry" />
        </mxCell>
        <mxCell id="mqr4CoRcmg9S_tCV8cLc-96" value="External IP2" style="rounded=1;whiteSpace=wrap;html=1;fillColor=#CCCCCC;" vertex="1" parent="1">
          <mxGeometry x="380" y="770" width="120" height="60" as="geometry" />
        </mxCell>
        <mxCell id="mqr4CoRcmg9S_tCV8cLc-99" value="" style="rounded=0;whiteSpace=wrap;html=1;" vertex="1" parent="1">
          <mxGeometry x="905.5" y="860" width="180" height="300" as="geometry" />
        </mxCell>
        <mxCell id="mqr4CoRcmg9S_tCV8cLc-100" style="edgeStyle=orthogonalEdgeStyle;rounded=0;orthogonalLoop=1;jettySize=auto;html=1;exitX=0.5;exitY=1;exitDx=0;exitDy=0;entryX=0.5;entryY=0;entryDx=0;entryDy=0;" edge="1" source="mqr4CoRcmg9S_tCV8cLc-101" target="mqr4CoRcmg9S_tCV8cLc-103" parent="1">
          <mxGeometry relative="1" as="geometry" />
        </mxCell>
        <mxCell id="mqr4CoRcmg9S_tCV8cLc-101" value="mpcpredictgateway" style="rounded=1;whiteSpace=wrap;html=1;" vertex="1" parent="1">
          <mxGeometry x="935.5" y="880" width="120" height="60" as="geometry" />
        </mxCell>
        <mxCell id="mqr4CoRcmg9S_tCV8cLc-102" style="edgeStyle=orthogonalEdgeStyle;rounded=0;orthogonalLoop=1;jettySize=auto;html=1;exitX=0.5;exitY=1;exitDx=0;exitDy=0;entryX=0.5;entryY=0;entryDx=0;entryDy=0;" edge="1" source="mqr4CoRcmg9S_tCV8cLc-103" target="mqr4CoRcmg9S_tCV8cLc-104" parent="1">
          <mxGeometry relative="1" as="geometry" />
        </mxCell>
        <mxCell id="mqr4CoRcmg9S_tCV8cLc-103" value="mpcpredictpc" style="rounded=1;whiteSpace=wrap;html=1;" vertex="1" parent="1">
          <mxGeometry x="935.5" y="980" width="120" height="60" as="geometry" />
        </mxCell>
        <mxCell id="mqr4CoRcmg9S_tCV8cLc-104" value="mpcpredictdx" style="rounded=1;whiteSpace=wrap;html=1;" vertex="1" parent="1">
          <mxGeometry x="935.5" y="1080" width="120" height="60" as="geometry" />
        </mxCell>
        <mxCell id="mqr4CoRcmg9S_tCV8cLc-105" value="k8s-svc: http://mpcpredictpc.dns" style="text;html=1;strokeColor=none;fillColor=none;align=center;verticalAlign=middle;whiteSpace=wrap;rounded=0;" vertex="1" parent="1">
          <mxGeometry x="935.5" y="947" width="130" height="20" as="geometry" />
        </mxCell>
        <mxCell id="mqr4CoRcmg9S_tCV8cLc-106" value="k8s-svc: http://mpcpredictdx.dns" style="text;html=1;strokeColor=none;fillColor=none;align=center;verticalAlign=middle;whiteSpace=wrap;rounded=0;" vertex="1" parent="1">
          <mxGeometry x="930.5" y="1048" width="130" height="20" as="geometry" />
        </mxCell>
        <mxCell id="mqr4CoRcmg9S_tCV8cLc-107" value="em14" style="text;html=1;strokeColor=none;fillColor=none;align=center;verticalAlign=middle;whiteSpace=wrap;rounded=0;" vertex="1" parent="1">
          <mxGeometry x="975.5" y="1140" width="40" height="20" as="geometry" />
        </mxCell>
        <mxCell id="mqr4CoRcmg9S_tCV8cLc-108" value="" style="rounded=0;whiteSpace=wrap;html=1;" vertex="1" parent="1">
          <mxGeometry x="1165.5" y="860" width="180" height="300" as="geometry" />
        </mxCell>
        <mxCell id="mqr4CoRcmg9S_tCV8cLc-109" style="edgeStyle=orthogonalEdgeStyle;rounded=0;orthogonalLoop=1;jettySize=auto;html=1;exitX=0.5;exitY=1;exitDx=0;exitDy=0;entryX=0.5;entryY=0;entryDx=0;entryDy=0;" edge="1" source="mqr4CoRcmg9S_tCV8cLc-110" target="mqr4CoRcmg9S_tCV8cLc-112" parent="1">
          <mxGeometry relative="1" as="geometry" />
        </mxCell>
        <mxCell id="mqr4CoRcmg9S_tCV8cLc-110" value="mpcpredictgateway" style="rounded=1;whiteSpace=wrap;html=1;" vertex="1" parent="1">
          <mxGeometry x="1195.5" y="880" width="120" height="60" as="geometry" />
        </mxCell>
        <mxCell id="mqr4CoRcmg9S_tCV8cLc-111" style="edgeStyle=orthogonalEdgeStyle;rounded=0;orthogonalLoop=1;jettySize=auto;html=1;exitX=0.5;exitY=1;exitDx=0;exitDy=0;entryX=0.5;entryY=0;entryDx=0;entryDy=0;" edge="1" source="mqr4CoRcmg9S_tCV8cLc-112" target="mqr4CoRcmg9S_tCV8cLc-113" parent="1">
          <mxGeometry relative="1" as="geometry" />
        </mxCell>
        <mxCell id="mqr4CoRcmg9S_tCV8cLc-112" value="mpcpredictpc" style="rounded=1;whiteSpace=wrap;html=1;" vertex="1" parent="1">
          <mxGeometry x="1195.5" y="980" width="120" height="60" as="geometry" />
        </mxCell>
        <mxCell id="mqr4CoRcmg9S_tCV8cLc-113" value="mpcpredictdx" style="rounded=1;whiteSpace=wrap;html=1;" vertex="1" parent="1">
          <mxGeometry x="1195.5" y="1080" width="120" height="60" as="geometry" />
        </mxCell>
        <mxCell id="mqr4CoRcmg9S_tCV8cLc-114" value="k8s-svc: http://mpcpredictpc.dns" style="text;html=1;strokeColor=none;fillColor=none;align=center;verticalAlign=middle;whiteSpace=wrap;rounded=0;" vertex="1" parent="1">
          <mxGeometry x="1195.5" y="947" width="130" height="20" as="geometry" />
        </mxCell>
        <mxCell id="mqr4CoRcmg9S_tCV8cLc-115" value="k8s-svc: http://mpcpredictdx.dns" style="text;html=1;strokeColor=none;fillColor=none;align=center;verticalAlign=middle;whiteSpace=wrap;rounded=0;" vertex="1" parent="1">
          <mxGeometry x="1190.5" y="1048" width="130" height="20" as="geometry" />
        </mxCell>
        <mxCell id="mqr4CoRcmg9S_tCV8cLc-116" value="et15" style="text;html=1;strokeColor=none;fillColor=none;align=center;verticalAlign=middle;whiteSpace=wrap;rounded=0;" vertex="1" parent="1">
          <mxGeometry x="1235.5" y="1140" width="40" height="20" as="geometry" />
        </mxCell>
        <mxCell id="mqr4CoRcmg9S_tCV8cLc-117" style="rounded=0;orthogonalLoop=1;jettySize=auto;html=1;exitX=0.5;exitY=1;exitDx=0;exitDy=0;entryX=0.5;entryY=0;entryDx=0;entryDy=0;" edge="1" source="mqr4CoRcmg9S_tCV8cLc-118" target="mqr4CoRcmg9S_tCV8cLc-101" parent="1">
          <mxGeometry relative="1" as="geometry" />
        </mxCell>
        <mxCell id="mqr4CoRcmg9S_tCV8cLc-118" value="External IP1" style="rounded=1;whiteSpace=wrap;html=1;" vertex="1" parent="1">
          <mxGeometry x="935.5" y="770" width="120" height="60" as="geometry" />
        </mxCell>
        <mxCell id="mqr4CoRcmg9S_tCV8cLc-119" value="&lt;span style=&quot;color: rgb(0, 0, 0); font-family: helvetica; font-size: 12px; font-style: normal; font-weight: 400; letter-spacing: normal; text-indent: 0px; text-transform: none; word-spacing: 0px; background-color: rgb(248, 249, 250); display: inline; float: none;&quot;&gt;Speial VIP1&lt;/span&gt;" style="text;whiteSpace=wrap;html=1;align=center;" vertex="1" parent="1">
          <mxGeometry x="955.5" y="830" width="80" height="30" as="geometry" />
        </mxCell>
        <mxCell id="mqr4CoRcmg9S_tCV8cLc-120" value="&lt;span style=&quot;color: rgb(0 , 0 , 0) ; font-family: &amp;#34;helvetica&amp;#34; ; font-size: 12px ; font-style: normal ; font-weight: 400 ; letter-spacing: normal ; text-indent: 0px ; text-transform: none ; word-spacing: 0px ; background-color: rgb(248 , 249 , 250) ; display: inline ; float: none&quot;&gt;Speial VIP2&lt;/span&gt;" style="text;whiteSpace=wrap;html=1;align=center;" vertex="1" parent="1">
          <mxGeometry x="1215.5" y="830" width="80" height="30" as="geometry" />
        </mxCell>
        <mxCell id="mqr4CoRcmg9S_tCV8cLc-121" style="edgeStyle=none;rounded=0;orthogonalLoop=1;jettySize=auto;html=1;exitX=0.5;exitY=1;exitDx=0;exitDy=0;entryX=0.5;entryY=0;entryDx=0;entryDy=0;" edge="1" source="mqr4CoRcmg9S_tCV8cLc-122" target="mqr4CoRcmg9S_tCV8cLc-118" parent="1">
          <mxGeometry relative="1" as="geometry" />
        </mxCell>
        <mxCell id="mqr4CoRcmg9S_tCV8cLc-126" style="edgeStyle=none;rounded=0;orthogonalLoop=1;jettySize=auto;html=1;exitX=0.5;exitY=1;exitDx=0;exitDy=0;entryX=0.5;entryY=0;entryDx=0;entryDy=0;" edge="1" parent="1" source="mqr4CoRcmg9S_tCV8cLc-122" target="mqr4CoRcmg9S_tCV8cLc-125">
          <mxGeometry relative="1" as="geometry" />
        </mxCell>
        <mxCell id="mqr4CoRcmg9S_tCV8cLc-122" value="XX Bank" style="rounded=1;whiteSpace=wrap;html=1;" vertex="1" parent="1">
          <mxGeometry x="1055.5" y="653" width="120" height="60" as="geometry" />
        </mxCell>
        <mxCell id="mqr4CoRcmg9S_tCV8cLc-124" style="edgeStyle=none;rounded=0;orthogonalLoop=1;jettySize=auto;html=1;exitX=0.5;exitY=1;exitDx=0;exitDy=0;" edge="1" source="mqr4CoRcmg9S_tCV8cLc-125" target="mqr4CoRcmg9S_tCV8cLc-110" parent="1">
          <mxGeometry relative="1" as="geometry" />
        </mxCell>
        <mxCell id="mqr4CoRcmg9S_tCV8cLc-125" value="External IP2" style="rounded=1;whiteSpace=wrap;html=1;fillColor=#FFFFFF;" vertex="1" parent="1">
          <mxGeometry x="1195.5" y="770" width="120" height="60" as="geometry" />
        </mxCell>
        <mxCell id="mqr4CoRcmg9S_tCV8cLc-127" value="&lt;font face=&quot;helvetica&quot;&gt;IP:&lt;br&gt;xxx.xxx.xxx.xxx&lt;br&gt;&lt;/font&gt;" style="text;whiteSpace=wrap;html=1;align=center;" vertex="1" parent="1">
          <mxGeometry x="890" y="713" width="213" height="30" as="geometry" />
        </mxCell>
        <mxCell id="mqr4CoRcmg9S_tCV8cLc-128" value="&lt;font face=&quot;helvetica&quot;&gt;IP:&lt;br&gt;yyy.yyy.yyy.yyy&lt;br&gt;&lt;/font&gt;" style="text;whiteSpace=wrap;html=1;align=center;" vertex="1" parent="1">
          <mxGeometry x="1138.5" y="713" width="213" height="30" as="geometry" />
        </mxCell>
        <mxCell id="mqr4CoRcmg9S_tCV8cLc-129" value="" style="rounded=0;whiteSpace=wrap;html=1;" vertex="1" parent="1">
          <mxGeometry x="90" y="1460" width="180" height="300" as="geometry" />
        </mxCell>
        <mxCell id="mqr4CoRcmg9S_tCV8cLc-130" style="edgeStyle=orthogonalEdgeStyle;rounded=0;orthogonalLoop=1;jettySize=auto;html=1;exitX=0.5;exitY=1;exitDx=0;exitDy=0;entryX=0.5;entryY=0;entryDx=0;entryDy=0;" edge="1" source="mqr4CoRcmg9S_tCV8cLc-131" target="mqr4CoRcmg9S_tCV8cLc-133" parent="1">
          <mxGeometry relative="1" as="geometry" />
        </mxCell>
        <mxCell id="mqr4CoRcmg9S_tCV8cLc-131" value="mpcpredictgateway" style="rounded=1;whiteSpace=wrap;html=1;" vertex="1" parent="1">
          <mxGeometry x="120" y="1480" width="120" height="60" as="geometry" />
        </mxCell>
        <mxCell id="mqr4CoRcmg9S_tCV8cLc-132" style="edgeStyle=orthogonalEdgeStyle;rounded=0;orthogonalLoop=1;jettySize=auto;html=1;exitX=0.5;exitY=1;exitDx=0;exitDy=0;entryX=0.5;entryY=0;entryDx=0;entryDy=0;" edge="1" source="mqr4CoRcmg9S_tCV8cLc-133" target="mqr4CoRcmg9S_tCV8cLc-134" parent="1">
          <mxGeometry relative="1" as="geometry" />
        </mxCell>
        <mxCell id="mqr4CoRcmg9S_tCV8cLc-133" value="mpcpredictpc" style="rounded=1;whiteSpace=wrap;html=1;" vertex="1" parent="1">
          <mxGeometry x="120" y="1580" width="120" height="60" as="geometry" />
        </mxCell>
        <mxCell id="mqr4CoRcmg9S_tCV8cLc-134" value="mpcpredictdx" style="rounded=1;whiteSpace=wrap;html=1;" vertex="1" parent="1">
          <mxGeometry x="120" y="1680" width="120" height="60" as="geometry" />
        </mxCell>
        <mxCell id="mqr4CoRcmg9S_tCV8cLc-135" value="k8s-svc: http://mpcpredictpc.dns" style="text;html=1;strokeColor=none;fillColor=none;align=center;verticalAlign=middle;whiteSpace=wrap;rounded=0;" vertex="1" parent="1">
          <mxGeometry x="120" y="1547" width="130" height="20" as="geometry" />
        </mxCell>
        <mxCell id="mqr4CoRcmg9S_tCV8cLc-136" value="k8s-svc: http://mpcpredictdx.dns" style="text;html=1;strokeColor=none;fillColor=none;align=center;verticalAlign=middle;whiteSpace=wrap;rounded=0;" vertex="1" parent="1">
          <mxGeometry x="115" y="1648" width="130" height="20" as="geometry" />
        </mxCell>
        <mxCell id="mqr4CoRcmg9S_tCV8cLc-137" value="em14" style="text;html=1;strokeColor=none;fillColor=none;align=center;verticalAlign=middle;whiteSpace=wrap;rounded=0;" vertex="1" parent="1">
          <mxGeometry x="160" y="1740" width="40" height="20" as="geometry" />
        </mxCell>
        <mxCell id="mqr4CoRcmg9S_tCV8cLc-138" value="" style="rounded=0;whiteSpace=wrap;html=1;" vertex="1" parent="1">
          <mxGeometry x="350" y="1460" width="180" height="300" as="geometry" />
        </mxCell>
        <mxCell id="mqr4CoRcmg9S_tCV8cLc-139" style="edgeStyle=orthogonalEdgeStyle;rounded=0;orthogonalLoop=1;jettySize=auto;html=1;exitX=0.5;exitY=1;exitDx=0;exitDy=0;entryX=0.5;entryY=0;entryDx=0;entryDy=0;" edge="1" source="mqr4CoRcmg9S_tCV8cLc-140" target="mqr4CoRcmg9S_tCV8cLc-142" parent="1">
          <mxGeometry relative="1" as="geometry" />
        </mxCell>
        <mxCell id="mqr4CoRcmg9S_tCV8cLc-140" value="mpcpredictgateway" style="rounded=1;whiteSpace=wrap;html=1;" vertex="1" parent="1">
          <mxGeometry x="380" y="1480" width="120" height="60" as="geometry" />
        </mxCell>
        <mxCell id="mqr4CoRcmg9S_tCV8cLc-141" style="edgeStyle=orthogonalEdgeStyle;rounded=0;orthogonalLoop=1;jettySize=auto;html=1;exitX=0.5;exitY=1;exitDx=0;exitDy=0;entryX=0.5;entryY=0;entryDx=0;entryDy=0;" edge="1" source="mqr4CoRcmg9S_tCV8cLc-142" target="mqr4CoRcmg9S_tCV8cLc-143" parent="1">
          <mxGeometry relative="1" as="geometry" />
        </mxCell>
        <mxCell id="mqr4CoRcmg9S_tCV8cLc-142" value="mpcpredictpc" style="rounded=1;whiteSpace=wrap;html=1;" vertex="1" parent="1">
          <mxGeometry x="380" y="1580" width="120" height="60" as="geometry" />
        </mxCell>
        <mxCell id="mqr4CoRcmg9S_tCV8cLc-143" value="mpcpredictdx" style="rounded=1;whiteSpace=wrap;html=1;" vertex="1" parent="1">
          <mxGeometry x="380" y="1680" width="120" height="60" as="geometry" />
        </mxCell>
        <mxCell id="mqr4CoRcmg9S_tCV8cLc-144" value="k8s-svc: http://mpcpredictpc.dns" style="text;html=1;strokeColor=none;fillColor=none;align=center;verticalAlign=middle;whiteSpace=wrap;rounded=0;" vertex="1" parent="1">
          <mxGeometry x="380" y="1547" width="130" height="20" as="geometry" />
        </mxCell>
        <mxCell id="mqr4CoRcmg9S_tCV8cLc-145" value="k8s-svc: http://mpcpredictdx.dns" style="text;html=1;strokeColor=none;fillColor=none;align=center;verticalAlign=middle;whiteSpace=wrap;rounded=0;" vertex="1" parent="1">
          <mxGeometry x="375" y="1648" width="130" height="20" as="geometry" />
        </mxCell>
        <mxCell id="mqr4CoRcmg9S_tCV8cLc-146" value="et15" style="text;html=1;strokeColor=none;fillColor=none;align=center;verticalAlign=middle;whiteSpace=wrap;rounded=0;" vertex="1" parent="1">
          <mxGeometry x="420" y="1740" width="40" height="20" as="geometry" />
        </mxCell>
        <mxCell id="mqr4CoRcmg9S_tCV8cLc-147" style="rounded=0;orthogonalLoop=1;jettySize=auto;html=1;exitX=0.5;exitY=1;exitDx=0;exitDy=0;entryX=0.5;entryY=0;entryDx=0;entryDy=0;" edge="1" source="mqr4CoRcmg9S_tCV8cLc-148" target="mqr4CoRcmg9S_tCV8cLc-131" parent="1">
          <mxGeometry relative="1" as="geometry" />
        </mxCell>
        <mxCell id="mqr4CoRcmg9S_tCV8cLc-157" style="edgeStyle=none;rounded=0;orthogonalLoop=1;jettySize=auto;html=1;exitX=0.5;exitY=1;exitDx=0;exitDy=0;entryX=0.5;entryY=0;entryDx=0;entryDy=0;" edge="1" parent="1" source="mqr4CoRcmg9S_tCV8cLc-148" target="mqr4CoRcmg9S_tCV8cLc-140">
          <mxGeometry relative="1" as="geometry" />
        </mxCell>
        <mxCell id="mqr4CoRcmg9S_tCV8cLc-148" value="External IP1" style="rounded=1;whiteSpace=wrap;html=1;" vertex="1" parent="1">
          <mxGeometry x="120" y="1370" width="120" height="60" as="geometry" />
        </mxCell>
        <mxCell id="mqr4CoRcmg9S_tCV8cLc-149" value="&lt;span style=&quot;color: rgb(0, 0, 0); font-family: helvetica; font-size: 12px; font-style: normal; font-weight: 400; letter-spacing: normal; text-indent: 0px; text-transform: none; word-spacing: 0px; background-color: rgb(248, 249, 250); display: inline; float: none;&quot;&gt;Speial VIP1&lt;/span&gt;" style="text;whiteSpace=wrap;html=1;align=center;" vertex="1" parent="1">
          <mxGeometry x="170" y="1433" width="80" height="30" as="geometry" />
        </mxCell>
        <mxCell id="mqr4CoRcmg9S_tCV8cLc-151" style="edgeStyle=none;rounded=0;orthogonalLoop=1;jettySize=auto;html=1;exitX=0.5;exitY=1;exitDx=0;exitDy=0;" edge="1" source="mqr4CoRcmg9S_tCV8cLc-152" target="mqr4CoRcmg9S_tCV8cLc-148" parent="1">
          <mxGeometry relative="1" as="geometry" />
        </mxCell>
        <mxCell id="mqr4CoRcmg9S_tCV8cLc-152" value="XX Bank" style="rounded=1;whiteSpace=wrap;html=1;" vertex="1" parent="1">
          <mxGeometry x="120" y="1240" width="120" height="60" as="geometry" />
        </mxCell>
        <mxCell id="mqr4CoRcmg9S_tCV8cLc-153" value="&lt;font face=&quot;helvetica&quot;&gt;IP:&lt;br&gt;xxx.xxx.xxx.xxx&lt;br&gt;&lt;/font&gt;" style="text;whiteSpace=wrap;html=1;align=center;" vertex="1" parent="1">
          <mxGeometry x="74.5" y="1313" width="213" height="30" as="geometry" />
        </mxCell>
        <mxCell id="mqr4CoRcmg9S_tCV8cLc-158" value="" style="rounded=0;whiteSpace=wrap;html=1;" vertex="1" parent="1">
          <mxGeometry x="870" y="1490" width="180" height="300" as="geometry" />
        </mxCell>
        <mxCell id="mqr4CoRcmg9S_tCV8cLc-159" style="edgeStyle=orthogonalEdgeStyle;rounded=0;orthogonalLoop=1;jettySize=auto;html=1;exitX=0.5;exitY=1;exitDx=0;exitDy=0;entryX=0.5;entryY=0;entryDx=0;entryDy=0;" edge="1" source="mqr4CoRcmg9S_tCV8cLc-160" target="mqr4CoRcmg9S_tCV8cLc-162" parent="1">
          <mxGeometry relative="1" as="geometry" />
        </mxCell>
        <mxCell id="mqr4CoRcmg9S_tCV8cLc-160" value="mpcpredictgateway" style="rounded=1;whiteSpace=wrap;html=1;" vertex="1" parent="1">
          <mxGeometry x="900" y="1510" width="120" height="60" as="geometry" />
        </mxCell>
        <mxCell id="mqr4CoRcmg9S_tCV8cLc-161" style="edgeStyle=orthogonalEdgeStyle;rounded=0;orthogonalLoop=1;jettySize=auto;html=1;exitX=0.5;exitY=1;exitDx=0;exitDy=0;entryX=0.5;entryY=0;entryDx=0;entryDy=0;" edge="1" source="mqr4CoRcmg9S_tCV8cLc-162" target="mqr4CoRcmg9S_tCV8cLc-163" parent="1">
          <mxGeometry relative="1" as="geometry" />
        </mxCell>
        <mxCell id="mqr4CoRcmg9S_tCV8cLc-162" value="mpcpredictpc" style="rounded=1;whiteSpace=wrap;html=1;" vertex="1" parent="1">
          <mxGeometry x="900" y="1610" width="120" height="60" as="geometry" />
        </mxCell>
        <mxCell id="mqr4CoRcmg9S_tCV8cLc-163" value="mpcpredictdx" style="rounded=1;whiteSpace=wrap;html=1;" vertex="1" parent="1">
          <mxGeometry x="900" y="1710" width="120" height="60" as="geometry" />
        </mxCell>
        <mxCell id="mqr4CoRcmg9S_tCV8cLc-164" value="k8s-svc: http://mpcpredictpc.dns" style="text;html=1;strokeColor=none;fillColor=none;align=center;verticalAlign=middle;whiteSpace=wrap;rounded=0;" vertex="1" parent="1">
          <mxGeometry x="900" y="1577" width="130" height="20" as="geometry" />
        </mxCell>
        <mxCell id="mqr4CoRcmg9S_tCV8cLc-165" value="k8s-svc: http://mpcpredictdx.dns" style="text;html=1;strokeColor=none;fillColor=none;align=center;verticalAlign=middle;whiteSpace=wrap;rounded=0;" vertex="1" parent="1">
          <mxGeometry x="895" y="1678" width="130" height="20" as="geometry" />
        </mxCell>
        <mxCell id="mqr4CoRcmg9S_tCV8cLc-166" value="em14" style="text;html=1;strokeColor=none;fillColor=none;align=center;verticalAlign=middle;whiteSpace=wrap;rounded=0;" vertex="1" parent="1">
          <mxGeometry x="940" y="1770" width="40" height="20" as="geometry" />
        </mxCell>
        <mxCell id="mqr4CoRcmg9S_tCV8cLc-167" value="" style="rounded=0;whiteSpace=wrap;html=1;" vertex="1" parent="1">
          <mxGeometry x="1130" y="1490" width="180" height="300" as="geometry" />
        </mxCell>
        <mxCell id="mqr4CoRcmg9S_tCV8cLc-168" style="edgeStyle=orthogonalEdgeStyle;rounded=0;orthogonalLoop=1;jettySize=auto;html=1;exitX=0.5;exitY=1;exitDx=0;exitDy=0;entryX=0.5;entryY=0;entryDx=0;entryDy=0;" edge="1" source="mqr4CoRcmg9S_tCV8cLc-169" target="mqr4CoRcmg9S_tCV8cLc-171" parent="1">
          <mxGeometry relative="1" as="geometry" />
        </mxCell>
        <mxCell id="mqr4CoRcmg9S_tCV8cLc-169" value="mpcpredictgateway" style="rounded=1;whiteSpace=wrap;html=1;" vertex="1" parent="1">
          <mxGeometry x="1160" y="1510" width="120" height="60" as="geometry" />
        </mxCell>
        <mxCell id="mqr4CoRcmg9S_tCV8cLc-170" style="edgeStyle=orthogonalEdgeStyle;rounded=0;orthogonalLoop=1;jettySize=auto;html=1;exitX=0.5;exitY=1;exitDx=0;exitDy=0;entryX=0.5;entryY=0;entryDx=0;entryDy=0;" edge="1" source="mqr4CoRcmg9S_tCV8cLc-171" target="mqr4CoRcmg9S_tCV8cLc-172" parent="1">
          <mxGeometry relative="1" as="geometry" />
        </mxCell>
        <mxCell id="mqr4CoRcmg9S_tCV8cLc-171" value="mpcpredictpc" style="rounded=1;whiteSpace=wrap;html=1;" vertex="1" parent="1">
          <mxGeometry x="1160" y="1610" width="120" height="60" as="geometry" />
        </mxCell>
        <mxCell id="mqr4CoRcmg9S_tCV8cLc-172" value="mpcpredictdx" style="rounded=1;whiteSpace=wrap;html=1;" vertex="1" parent="1">
          <mxGeometry x="1160" y="1710" width="120" height="60" as="geometry" />
        </mxCell>
        <mxCell id="mqr4CoRcmg9S_tCV8cLc-173" value="k8s-svc: http://mpcpredictpc.dns" style="text;html=1;strokeColor=none;fillColor=none;align=center;verticalAlign=middle;whiteSpace=wrap;rounded=0;" vertex="1" parent="1">
          <mxGeometry x="1160" y="1577" width="130" height="20" as="geometry" />
        </mxCell>
        <mxCell id="mqr4CoRcmg9S_tCV8cLc-174" value="k8s-svc: http://mpcpredictdx.dns" style="text;html=1;strokeColor=none;fillColor=none;align=center;verticalAlign=middle;whiteSpace=wrap;rounded=0;" vertex="1" parent="1">
          <mxGeometry x="1155" y="1678" width="130" height="20" as="geometry" />
        </mxCell>
        <mxCell id="mqr4CoRcmg9S_tCV8cLc-175" value="et15" style="text;html=1;strokeColor=none;fillColor=none;align=center;verticalAlign=middle;whiteSpace=wrap;rounded=0;" vertex="1" parent="1">
          <mxGeometry x="1200" y="1770" width="40" height="20" as="geometry" />
        </mxCell>
        <mxCell id="mqr4CoRcmg9S_tCV8cLc-176" style="rounded=0;orthogonalLoop=1;jettySize=auto;html=1;exitX=0.5;exitY=1;exitDx=0;exitDy=0;entryX=0.5;entryY=0;entryDx=0;entryDy=0;" edge="1" source="mqr4CoRcmg9S_tCV8cLc-177" target="mqr4CoRcmg9S_tCV8cLc-160" parent="1">
          <mxGeometry relative="1" as="geometry" />
        </mxCell>
        <mxCell id="mqr4CoRcmg9S_tCV8cLc-177" value="External IP1" style="rounded=1;whiteSpace=wrap;html=1;" vertex="1" parent="1">
          <mxGeometry x="900" y="1400" width="120" height="60" as="geometry" />
        </mxCell>
        <mxCell id="mqr4CoRcmg9S_tCV8cLc-178" value="&lt;span style=&quot;color: rgb(0, 0, 0); font-family: helvetica; font-size: 12px; font-style: normal; font-weight: 400; letter-spacing: normal; text-indent: 0px; text-transform: none; word-spacing: 0px; background-color: rgb(248, 249, 250); display: inline; float: none;&quot;&gt;Speial VIP1&lt;/span&gt;" style="text;whiteSpace=wrap;html=1;align=center;" vertex="1" parent="1">
          <mxGeometry x="920" y="1460" width="80" height="30" as="geometry" />
        </mxCell>
        <mxCell id="mqr4CoRcmg9S_tCV8cLc-179" value="&lt;span style=&quot;color: rgb(0 , 0 , 0) ; font-family: &amp;#34;helvetica&amp;#34; ; font-size: 12px ; font-style: normal ; font-weight: 400 ; letter-spacing: normal ; text-indent: 0px ; text-transform: none ; word-spacing: 0px ; background-color: rgb(248 , 249 , 250) ; display: inline ; float: none&quot;&gt;Speial VIP2&lt;/span&gt;" style="text;whiteSpace=wrap;html=1;align=center;" vertex="1" parent="1">
          <mxGeometry x="1180" y="1460" width="80" height="30" as="geometry" />
        </mxCell>
        <mxCell id="mqr4CoRcmg9S_tCV8cLc-180" style="edgeStyle=none;rounded=0;orthogonalLoop=1;jettySize=auto;html=1;exitX=0.5;exitY=1;exitDx=0;exitDy=0;" edge="1" source="mqr4CoRcmg9S_tCV8cLc-181" target="mqr4CoRcmg9S_tCV8cLc-177" parent="1">
          <mxGeometry relative="1" as="geometry" />
        </mxCell>
        <mxCell id="mqr4CoRcmg9S_tCV8cLc-181" value="XX Bank" style="rounded=1;whiteSpace=wrap;html=1;" vertex="1" parent="1">
          <mxGeometry x="900" y="1270" width="120" height="60" as="geometry" />
        </mxCell>
        <mxCell id="mqr4CoRcmg9S_tCV8cLc-182" value="&lt;font face=&quot;helvetica&quot;&gt;IP:&lt;br&gt;xxx.xxx.xxx.xxx&lt;br&gt;&lt;/font&gt;" style="text;whiteSpace=wrap;html=1;align=center;" vertex="1" parent="1">
          <mxGeometry x="854.5" y="1343" width="213" height="30" as="geometry" />
        </mxCell>
        <mxCell id="mqr4CoRcmg9S_tCV8cLc-183" style="edgeStyle=none;rounded=0;orthogonalLoop=1;jettySize=auto;html=1;exitX=0.5;exitY=1;exitDx=0;exitDy=0;" edge="1" target="mqr4CoRcmg9S_tCV8cLc-169" parent="1">
          <mxGeometry relative="1" as="geometry">
            <mxPoint x="1219.9999999999995" y="1460" as="sourcePoint" />
          </mxGeometry>
        </mxCell>
        <mxCell id="mqr4CoRcmg9S_tCV8cLc-185" value="External IP2" style="rounded=1;whiteSpace=wrap;html=1;" vertex="1" parent="1">
          <mxGeometry x="1161" y="1400" width="120" height="60" as="geometry" />
        </mxCell>
        <mxCell id="mqr4CoRcmg9S_tCV8cLc-186" style="edgeStyle=none;rounded=0;orthogonalLoop=1;jettySize=auto;html=1;exitX=0.5;exitY=1;exitDx=0;exitDy=0;" edge="1" source="mqr4CoRcmg9S_tCV8cLc-187" target="mqr4CoRcmg9S_tCV8cLc-185" parent="1">
          <mxGeometry relative="1" as="geometry" />
        </mxCell>
        <mxCell id="mqr4CoRcmg9S_tCV8cLc-187" value="YY Bank" style="rounded=1;whiteSpace=wrap;html=1;" vertex="1" parent="1">
          <mxGeometry x="1161" y="1270" width="120" height="60" as="geometry" />
        </mxCell>
        <mxCell id="mqr4CoRcmg9S_tCV8cLc-188" value="&lt;font face=&quot;helvetica&quot;&gt;IP:&lt;br&gt;yyy.yyy.yyy.yyy&lt;br&gt;&lt;/font&gt;" style="text;whiteSpace=wrap;html=1;align=center;" vertex="1" parent="1">
          <mxGeometry x="1115.5" y="1343" width="213" height="30" as="geometry" />
        </mxCell>
      </root>
    </mxGraphModel>
  </diagram>
</mxfile>
